<mxfile host="app.diagrams.net" modified="2022-05-09T11:29:21.015Z" agent="5.0 (Windows NT 10.0; Win64; x64) AppleWebKit/537.36 (KHTML, like Gecko) Chrome/98.0.4758.102 Safari/537.36 Edg/98.0.1108.62" etag="2L9skuKe4jslCV-dhePc" version="18.0.2" type="github">
  <diagram name="Page-1" id="b98fa263-6416-c6ec-5b7d-78bf54ef71d0">
    <mxGraphModel dx="981" dy="548" grid="1" gridSize="10" guides="1" tooltips="1" connect="1" arrows="1" fold="1" page="1" pageScale="1.5" pageWidth="1169" pageHeight="826" background="none" math="0" shadow="0">
      <root>
        <mxCell id="0" style=";html=1;" />
        <mxCell id="1" style=";html=1;" parent="0" />
        <mxCell id="YeRdr_v14mPwPo_mnSce-40" style="edgeStyle=orthogonalEdgeStyle;rounded=0;orthogonalLoop=1;jettySize=auto;html=1;fontSize=19;" parent="1" source="YeRdr_v14mPwPo_mnSce-3" target="YeRdr_v14mPwPo_mnSce-36" edge="1">
          <mxGeometry relative="1" as="geometry" />
        </mxCell>
        <mxCell id="YeRdr_v14mPwPo_mnSce-3" value="&lt;span style=&quot;font-size: 19px;&quot;&gt;&lt;b&gt;&lt;font face=&quot;Courier New&quot;&gt;./&lt;/font&gt; (Root)&lt;/b&gt;&lt;/span&gt;" style="whiteSpace=wrap;html=1;rounded=1;shadow=1;strokeWidth=1;fontSize=16;align=center;fillColor=#f5f5f5;strokeColor=#666666;" parent="1" vertex="1">
          <mxGeometry x="390.5" y="370" width="133" height="45" as="geometry" />
        </mxCell>
        <mxCell id="YeRdr_v14mPwPo_mnSce-36" value="Content" style="swimlane;fontStyle=1;childLayout=stackLayout;horizontal=1;startSize=26;horizontalStack=0;resizeParent=1;resizeParentMax=0;resizeLast=0;collapsible=1;marginBottom=0;align=center;fontSize=19;glass=1;" parent="1" vertex="1">
          <mxGeometry x="375.5" y="460" width="163" height="250" as="geometry" />
        </mxCell>
        <mxCell id="bgLuU6IObT5vtLQL4Lgu-6" value="p01&#xa;p02&#xa;p03&#xa;&#xa;p05&#xa;p06&#xa;p07&#xa;p08&#xa;p09" style="text;strokeColor=none;fillColor=none;spacingLeft=4;spacingRight=4;overflow=hidden;rotatable=0;points=[[0,0.5],[1,0.5]];portConstraint=eastwest;fontSize=19;glass=1;" parent="YeRdr_v14mPwPo_mnSce-36" vertex="1">
          <mxGeometry y="26" width="163" height="224" as="geometry" />
        </mxCell>
        <mxCell id="bgLuU6IObT5vtLQL4Lgu-10" style="edgeStyle=orthogonalEdgeStyle;rounded=0;orthogonalLoop=1;jettySize=auto;html=1;fontSize=19;" parent="1" source="bgLuU6IObT5vtLQL4Lgu-11" target="bgLuU6IObT5vtLQL4Lgu-12" edge="1">
          <mxGeometry relative="1" as="geometry" />
        </mxCell>
        <mxCell id="bgLuU6IObT5vtLQL4Lgu-11" value="&lt;span style=&quot;font-size: 19px;&quot;&gt;&lt;b&gt;&lt;font face=&quot;Courier New&quot;&gt;./p04/&lt;/font&gt;&lt;/b&gt;&lt;/span&gt;" style="whiteSpace=wrap;html=1;rounded=1;shadow=1;strokeWidth=1;fontSize=16;align=center;fillColor=#f5f5f5;strokeColor=#666666;" parent="1" vertex="1">
          <mxGeometry x="605" y="370" width="133" height="45" as="geometry" />
        </mxCell>
        <mxCell id="bgLuU6IObT5vtLQL4Lgu-12" value="Content" style="swimlane;fontStyle=1;childLayout=stackLayout;horizontal=1;startSize=26;horizontalStack=0;resizeParent=1;resizeParentMax=0;resizeLast=0;collapsible=1;marginBottom=0;align=center;fontSize=19;glass=1;" parent="1" vertex="1">
          <mxGeometry x="590" y="460" width="163" height="250" as="geometry" />
        </mxCell>
        <mxCell id="bgLuU6IObT5vtLQL4Lgu-13" value="p040000&#xa;p040013&#xa;p040019&#xa;&#xa;...&#xa;p049976&#xa;p049984&#xa;p049995&#xa;p049999" style="text;strokeColor=none;fillColor=none;spacingLeft=4;spacingRight=4;overflow=hidden;rotatable=0;points=[[0,0.5],[1,0.5]];portConstraint=eastwest;fontSize=19;glass=1;" parent="bgLuU6IObT5vtLQL4Lgu-12" vertex="1">
          <mxGeometry y="26" width="163" height="224" as="geometry" />
        </mxCell>
        <mxCell id="bgLuU6IObT5vtLQL4Lgu-15" value="" style="endArrow=classic;html=1;rounded=0;fontFamily=Courier New;entryX=0;entryY=0.5;entryDx=0;entryDy=0;" parent="1" target="bgLuU6IObT5vtLQL4Lgu-11" edge="1">
          <mxGeometry width="50" height="50" relative="1" as="geometry">
            <mxPoint x="427" y="574" as="sourcePoint" />
            <mxPoint x="570" y="574" as="targetPoint" />
            <Array as="points">
              <mxPoint x="560" y="574" />
              <mxPoint x="560" y="393" />
            </Array>
          </mxGeometry>
        </mxCell>
        <mxCell id="bgLuU6IObT5vtLQL4Lgu-16" value="&lt;font style=&quot;font-size: 19px;&quot; color=&quot;#ff0000&quot; face=&quot;Helvetica&quot;&gt;&lt;b&gt;p04&lt;/b&gt;&lt;/font&gt;" style="text;html=1;strokeColor=none;fillColor=none;align=center;verticalAlign=middle;whiteSpace=wrap;rounded=0;fontFamily=Courier New;" parent="1" vertex="1">
          <mxGeometry x="367" y="558" width="60" height="30" as="geometry" />
        </mxCell>
        <mxCell id="bgLuU6IObT5vtLQL4Lgu-17" value="" style="endArrow=classic;html=1;rounded=0;fontFamily=Courier New;entryX=0;entryY=0.5;entryDx=0;entryDy=0;" parent="1" target="bgLuU6IObT5vtLQL4Lgu-21" edge="1">
          <mxGeometry width="50" height="50" relative="1" as="geometry">
            <mxPoint x="680" y="573.5" as="sourcePoint" />
            <mxPoint x="830" y="392" as="targetPoint" />
            <Array as="points">
              <mxPoint x="780" y="574" />
              <mxPoint x="780" y="392" />
            </Array>
          </mxGeometry>
        </mxCell>
        <mxCell id="bgLuU6IObT5vtLQL4Lgu-20" style="edgeStyle=orthogonalEdgeStyle;rounded=0;orthogonalLoop=1;jettySize=auto;html=1;fontSize=19;" parent="1" source="bgLuU6IObT5vtLQL4Lgu-21" target="bgLuU6IObT5vtLQL4Lgu-22" edge="1">
          <mxGeometry relative="1" as="geometry" />
        </mxCell>
        <mxCell id="bgLuU6IObT5vtLQL4Lgu-21" value="&lt;b style=&quot;&quot;&gt;&lt;font style=&quot;font-size: 17px;&quot; face=&quot;Courier New&quot;&gt;p04/p04033/&lt;/font&gt;&lt;/b&gt;" style="whiteSpace=wrap;html=1;rounded=1;shadow=1;strokeWidth=1;fontSize=16;align=center;fillColor=#f5f5f5;strokeColor=#666666;" parent="1" vertex="1">
          <mxGeometry x="876" y="370" width="133" height="45" as="geometry" />
        </mxCell>
        <mxCell id="bgLuU6IObT5vtLQL4Lgu-22" value="Content" style="swimlane;fontStyle=1;childLayout=stackLayout;horizontal=1;startSize=26;horizontalStack=0;resizeParent=1;resizeParentMax=0;resizeLast=0;collapsible=1;marginBottom=0;align=center;fontSize=19;glass=1;" parent="1" vertex="1">
          <mxGeometry x="815" y="459" width="255" height="250" as="geometry" />
        </mxCell>
        <mxCell id="bgLuU6IObT5vtLQL4Lgu-23" value="3606239_0001.dat&#xa;3606239_0001.hea&#xa;3606239_0002.dat&#xa;...&#xa;3606239_0031.dat&#xa;&#xa;...&#xa;&#xa;3606239n.dat&#xa;RECORDS&#xa;&#xa;p040033-2143-05-15-15-09n.hea" style="text;strokeColor=none;fillColor=none;spacingLeft=4;spacingRight=4;overflow=hidden;rotatable=0;points=[[0,0.5],[1,0.5]];portConstraint=eastwest;fontSize=15;glass=1;" parent="bgLuU6IObT5vtLQL4Lgu-22" vertex="1">
          <mxGeometry y="26" width="255" height="224" as="geometry" />
        </mxCell>
        <mxCell id="bgLuU6IObT5vtLQL4Lgu-24" value="&lt;span style=&quot;font-family: Helvetica; font-size: 19px; text-align: left;&quot;&gt;&lt;b&gt;&lt;font color=&quot;#ff0000&quot;&gt;p040033&lt;/font&gt;&lt;/b&gt;&lt;/span&gt;" style="text;html=1;strokeColor=none;fillColor=none;align=center;verticalAlign=middle;whiteSpace=wrap;rounded=0;fontFamily=Courier New;" parent="1" vertex="1">
          <mxGeometry x="603" y="559" width="60" height="30" as="geometry" />
        </mxCell>
        <mxCell id="bgLuU6IObT5vtLQL4Lgu-30" value="" style="endArrow=classic;html=1;rounded=0;fontFamily=Courier New;entryX=0;entryY=0.5;entryDx=0;entryDy=0;" parent="1" target="bgLuU6IObT5vtLQL4Lgu-32" edge="1">
          <mxGeometry width="50" height="50" relative="1" as="geometry">
            <mxPoint x="963" y="592" as="sourcePoint" />
            <mxPoint x="1188.5" y="384.5" as="targetPoint" />
            <Array as="points">
              <mxPoint x="1093" y="592" />
              <mxPoint x="1093" y="303" />
            </Array>
          </mxGeometry>
        </mxCell>
        <mxCell id="bgLuU6IObT5vtLQL4Lgu-31" style="edgeStyle=orthogonalEdgeStyle;rounded=0;orthogonalLoop=1;jettySize=auto;html=1;fontSize=19;" parent="1" source="bgLuU6IObT5vtLQL4Lgu-32" target="bgLuU6IObT5vtLQL4Lgu-33" edge="1">
          <mxGeometry relative="1" as="geometry" />
        </mxCell>
        <mxCell id="bgLuU6IObT5vtLQL4Lgu-32" value="&lt;font size=&quot;1&quot; style=&quot;&quot; face=&quot;Courier New&quot;&gt;&lt;b style=&quot;font-size: 17px;&quot;&gt;p04003/3606239_0031.hea/&lt;/b&gt;&lt;/font&gt;" style="whiteSpace=wrap;html=1;rounded=1;shadow=1;strokeWidth=1;fontSize=16;align=center;fillColor=#f5f5f5;strokeColor=#666666;" parent="1" vertex="1">
          <mxGeometry x="1185.5" y="280" width="280" height="45" as="geometry" />
        </mxCell>
        <mxCell id="bgLuU6IObT5vtLQL4Lgu-33" value="Content" style="swimlane;fontStyle=1;childLayout=stackLayout;horizontal=1;startSize=26;horizontalStack=0;resizeParent=1;resizeParentMax=0;resizeLast=0;collapsible=1;marginBottom=0;align=center;fontSize=19;glass=1;" parent="1" vertex="1">
          <mxGeometry x="1125.5" y="370" width="400" height="120" as="geometry" />
        </mxCell>
        <mxCell id="bgLuU6IObT5vtLQL4Lgu-34" value="3606239_0031 4 125 125 17:19:50.149&#xa;3606239_0031.dat 16 2048(1023)/mV 12 2048 1863 5850 0 II&#xa;3606239_0031.dat 16 2048(1023)/mV 12 2048 2610 -22272 0 V&#xa;3606239_0031.dat 16 2048(1023)/mV 12 2048 2323 -15655 0 AVR&#xa;3606239_0031.dat 16 1023(0)/NU 12 2048 2169 -27497 0 PLETH" style="text;strokeColor=none;fillColor=none;spacingLeft=4;spacingRight=4;overflow=hidden;rotatable=0;points=[[0,0.5],[1,0.5]];portConstraint=eastwest;fontSize=13;glass=1;fontStyle=0" parent="bgLuU6IObT5vtLQL4Lgu-33" vertex="1">
          <mxGeometry y="26" width="400" height="94" as="geometry" />
        </mxCell>
        <mxCell id="bgLuU6IObT5vtLQL4Lgu-37" value="&lt;span style=&quot;font-family: Helvetica; text-align: left;&quot;&gt;&lt;b style=&quot;&quot;&gt;&lt;font style=&quot;font-size: 15px;&quot; color=&quot;#ff0000&quot;&gt;3606239_0031.hea&lt;/font&gt;&lt;/b&gt;&lt;/span&gt;" style="text;html=1;strokeColor=none;fillColor=none;align=center;verticalAlign=middle;whiteSpace=wrap;rounded=0;fontFamily=Courier New;" parent="1" vertex="1">
          <mxGeometry x="856" y="576" width="60" height="30" as="geometry" />
        </mxCell>
        <mxCell id="bgLuU6IObT5vtLQL4Lgu-39" value="" style="endArrow=classic;html=1;rounded=0;fontFamily=Courier New;entryX=0;entryY=0.5;entryDx=0;entryDy=0;" parent="1" target="bgLuU6IObT5vtLQL4Lgu-42" edge="1">
          <mxGeometry width="50" height="50" relative="1" as="geometry">
            <mxPoint x="977" y="626" as="sourcePoint" />
            <mxPoint x="1180" y="540" as="targetPoint" />
            <Array as="points">
              <mxPoint x="1110" y="626" />
              <mxPoint x="1110" y="543" />
            </Array>
          </mxGeometry>
        </mxCell>
        <mxCell id="bgLuU6IObT5vtLQL4Lgu-40" value="&lt;span style=&quot;font-family: Helvetica; text-align: left;&quot;&gt;&lt;b style=&quot;&quot;&gt;&lt;font style=&quot;font-size: 15px;&quot; color=&quot;#ff0000&quot;&gt;3696239_layout.hea&lt;/font&gt;&lt;/b&gt;&lt;/span&gt;" style="text;html=1;strokeColor=none;fillColor=none;align=center;verticalAlign=middle;whiteSpace=wrap;rounded=0;fontFamily=Courier New;" parent="1" vertex="1">
          <mxGeometry x="861" y="611" width="60" height="30" as="geometry" />
        </mxCell>
        <mxCell id="bgLuU6IObT5vtLQL4Lgu-41" style="edgeStyle=orthogonalEdgeStyle;rounded=0;orthogonalLoop=1;jettySize=auto;html=1;fontSize=19;" parent="1" source="bgLuU6IObT5vtLQL4Lgu-42" target="bgLuU6IObT5vtLQL4Lgu-43" edge="1">
          <mxGeometry relative="1" as="geometry" />
        </mxCell>
        <mxCell id="bgLuU6IObT5vtLQL4Lgu-42" value="&lt;font size=&quot;1&quot; style=&quot;&quot; face=&quot;Courier New&quot;&gt;&lt;b style=&quot;font-size: 17px;&quot;&gt;p04003/3606239_layout.hea/&lt;/b&gt;&lt;/font&gt;" style="whiteSpace=wrap;html=1;rounded=1;shadow=1;strokeWidth=1;fontSize=16;align=center;fillColor=#f5f5f5;strokeColor=#666666;" parent="1" vertex="1">
          <mxGeometry x="1173.25" y="520" width="304.5" height="45" as="geometry" />
        </mxCell>
        <mxCell id="bgLuU6IObT5vtLQL4Lgu-43" value="Content" style="swimlane;fontStyle=1;childLayout=stackLayout;horizontal=1;startSize=26;horizontalStack=0;resizeParent=1;resizeParentMax=0;resizeLast=0;collapsible=1;marginBottom=0;align=center;fontSize=19;glass=1;" parent="1" vertex="1">
          <mxGeometry x="1125.5" y="610" width="400" height="200" as="geometry" />
        </mxCell>
        <mxCell id="bgLuU6IObT5vtLQL4Lgu-44" value="3606239_layout 9 125 0 15:09:06.149&#xa;~ 0 2048(-1025)/mV 12 0 -6144 0 0 II&#xa;~ 0 2046(-1024)/mV 12 0 0 0 0 III&#xa;~ 0 2048(-1025)/mV 12 0 0 0 0 AVR&#xa;~ 0 2048(-1025)/mV 12 0 0 0 0 V&#xa;~ 0 3250(-1625)/pm 12 0 0 0 0 RESP&#xa;~ 0 1023(-2048)/NU 12 0 0 0 0 PLETH&#xa;~ 0 20.4733(-1741)/mmHg 12 0 0 0 0 ABP&#xa;~ 0 102.367(-2867)/mmHg 13 0 -2048 0 0 CVP&#xa;~ 0 102.367(-8703)/mmHg 15 0 -14336 0 0 UAP" style="text;strokeColor=none;fillColor=none;spacingLeft=4;spacingRight=4;overflow=hidden;rotatable=0;points=[[0,0.5],[1,0.5]];portConstraint=eastwest;fontSize=13;glass=1;fontStyle=0" parent="bgLuU6IObT5vtLQL4Lgu-43" vertex="1">
          <mxGeometry y="26" width="400" height="174" as="geometry" />
        </mxCell>
        <mxCell id="K3aE2WfBnSOuwdUXJC2o-1" value="&lt;span style=&quot;font-family: Helvetica; text-align: left;&quot;&gt;&lt;b style=&quot;&quot;&gt;&lt;font style=&quot;font-size: 15px;&quot; color=&quot;#ff0000&quot;&gt;p040033-2143-05-15-15-09.hea&lt;/font&gt;&lt;/b&gt;&lt;/span&gt;" style="text;html=1;strokeColor=none;fillColor=none;align=center;verticalAlign=middle;whiteSpace=wrap;rounded=0;fontFamily=Courier New;" vertex="1" parent="1">
          <mxGeometry x="819" y="665" width="219" height="30" as="geometry" />
        </mxCell>
      </root>
    </mxGraphModel>
  </diagram>
</mxfile>
